<mxfile host="drawio-plugin" modified="2023-06-24T19:08:05.429Z" agent="5.0 (X11; Linux x86_64) AppleWebKit/537.36 (KHTML, like Gecko) Chrome/104.0.5112.102 Safari/537.36" etag="83kNVcebjqloVn02Qrq2" version="20.5.3" type="embed"><diagram id="C5RBs43oDa-KdzZeNtuy" name="Page-1"><mxGraphModel dx="1385" dy="1882" grid="1" gridSize="10" guides="1" tooltips="1" connect="1" arrows="1" fold="1" page="1" pageScale="1" pageWidth="827" pageHeight="1169" math="0" shadow="0"><root><mxCell id="WIyWlLk6GJQsqaUBKTNV-0"/><mxCell id="WIyWlLk6GJQsqaUBKTNV-1" parent="WIyWlLk6GJQsqaUBKTNV-0"/><mxCell id="twwaAmcpACiWc4_Vs1gQ-12" value="Recipe package" style="shape=folder;fontStyle=1;tabWidth=110;tabHeight=30;tabPosition=left;html=1;boundedLbl=1;labelInHeader=1;container=1;collapsible=0;recursiveResize=0;whiteSpace=wrap;" parent="WIyWlLk6GJQsqaUBKTNV-1" vertex="1"><mxGeometry x="160" y="-200" width="860" height="230" as="geometry"/></mxCell><mxCell id="zkfFHV4jXpPFQw0GAbJ--0" value="Recipe" style="swimlane;fontStyle=0;align=center;verticalAlign=top;childLayout=stackLayout;horizontal=1;startSize=26;horizontalStack=0;resizeParent=1;resizeLast=0;collapsible=1;marginBottom=0;rounded=0;shadow=0;strokeWidth=1;" parent="twwaAmcpACiWc4_Vs1gQ-12" vertex="1"><mxGeometry x="45" y="80" width="220" height="138" as="geometry"><mxRectangle x="230" y="140" width="160" height="26" as="alternateBounds"/></mxGeometry></mxCell><mxCell id="zkfFHV4jXpPFQw0GAbJ--1" value="- title: String" style="text;align=left;verticalAlign=top;spacingLeft=4;spacingRight=4;overflow=hidden;rotatable=0;points=[[0,0.5],[1,0.5]];portConstraint=eastwest;" parent="zkfFHV4jXpPFQw0GAbJ--0" vertex="1"><mxGeometry y="26" width="220" height="26" as="geometry"/></mxCell><mxCell id="q-PXtFeuL0Apsl_alM3o-1" value="- description: String [0..1]" style="text;align=left;verticalAlign=top;spacingLeft=4;spacingRight=4;overflow=hidden;rotatable=0;points=[[0,0.5],[1,0.5]];portConstraint=eastwest;" parent="zkfFHV4jXpPFQw0GAbJ--0" vertex="1"><mxGeometry y="52" width="220" height="26" as="geometry"/></mxCell><mxCell id="zkfFHV4jXpPFQw0GAbJ--3" value="- instructions: String [1..*]" style="text;align=left;verticalAlign=top;spacingLeft=4;spacingRight=4;overflow=hidden;rotatable=0;points=[[0,0.5],[1,0.5]];portConstraint=eastwest;rounded=0;shadow=0;html=0;" parent="zkfFHV4jXpPFQw0GAbJ--0" vertex="1"><mxGeometry y="78" width="220" height="26" as="geometry"/></mxCell><mxCell id="q-PXtFeuL0Apsl_alM3o-0" value="- recommendations: String [0..1]" style="text;align=left;verticalAlign=top;spacingLeft=4;spacingRight=4;overflow=hidden;rotatable=0;points=[[0,0.5],[1,0.5]];portConstraint=eastwest;rounded=0;shadow=0;html=0;" parent="zkfFHV4jXpPFQw0GAbJ--0" vertex="1"><mxGeometry y="104" width="220" height="26" as="geometry"/></mxCell><mxCell id="zkfFHV4jXpPFQw0GAbJ--26" value="" style="endArrow=open;shadow=0;strokeWidth=1;rounded=0;endFill=1;edgeStyle=elbowEdgeStyle;elbow=vertical;startArrow=diamondThin;startFill=1;sourcePerimeterSpacing=0;startSize=10;" parent="twwaAmcpACiWc4_Vs1gQ-12" source="zkfFHV4jXpPFQw0GAbJ--0" target="zkfFHV4jXpPFQw0GAbJ--17" edge="1"><mxGeometry x="0.5" y="41" relative="1" as="geometry"><mxPoint x="265" y="152" as="sourcePoint"/><mxPoint x="425" y="152" as="targetPoint"/><mxPoint x="-40" y="32" as="offset"/></mxGeometry></mxCell><mxCell id="zkfFHV4jXpPFQw0GAbJ--27" value="1..n" style="resizable=0;align=left;verticalAlign=bottom;labelBackgroundColor=none;fontSize=12;" parent="zkfFHV4jXpPFQw0GAbJ--26" connectable="0" vertex="1"><mxGeometry x="-1" relative="1" as="geometry"><mxPoint y="-9" as="offset"/></mxGeometry></mxCell><mxCell id="zkfFHV4jXpPFQw0GAbJ--28" value="1" style="resizable=0;align=right;verticalAlign=bottom;labelBackgroundColor=none;fontSize=12;" parent="zkfFHV4jXpPFQw0GAbJ--26" connectable="0" vertex="1"><mxGeometry x="1" relative="1" as="geometry"><mxPoint x="-7" y="-9" as="offset"/></mxGeometry></mxCell><mxCell id="zkfFHV4jXpPFQw0GAbJ--29" value="made of" style="text;html=1;resizable=0;points=[];;align=center;verticalAlign=middle;labelBackgroundColor=none;rounded=0;shadow=0;strokeWidth=1;fontSize=12;" parent="zkfFHV4jXpPFQw0GAbJ--26" vertex="1" connectable="0"><mxGeometry x="0.5" y="49" relative="1" as="geometry"><mxPoint x="-38" y="40" as="offset"/></mxGeometry></mxCell><mxCell id="zkfFHV4jXpPFQw0GAbJ--17" value="Ingredient" style="swimlane;fontStyle=0;align=center;verticalAlign=top;childLayout=stackLayout;horizontal=1;startSize=26;horizontalStack=0;resizeParent=1;resizeLast=0;collapsible=1;marginBottom=0;rounded=0;shadow=0;strokeWidth=1;" parent="twwaAmcpACiWc4_Vs1gQ-12" vertex="1"><mxGeometry x="405" y="80" width="180" height="60" as="geometry"><mxRectangle x="550" y="140" width="160" height="26" as="alternateBounds"/></mxGeometry></mxCell><mxCell id="zkfFHV4jXpPFQw0GAbJ--18" value="- name: String" style="text;align=left;verticalAlign=top;spacingLeft=4;spacingRight=4;overflow=hidden;rotatable=0;points=[[0,0.5],[1,0.5]];portConstraint=eastwest;" parent="zkfFHV4jXpPFQw0GAbJ--17" vertex="1"><mxGeometry y="26" width="180" height="26" as="geometry"/></mxCell><mxCell id="9nvnAEAGr7HeEQP3xFSp-3" value="1..n" style="resizable=0;align=left;verticalAlign=bottom;labelBackgroundColor=none;fontSize=12;" parent="twwaAmcpACiWc4_Vs1gQ-12" connectable="0" vertex="1"><mxGeometry x="500" y="169.99888888888893" as="geometry"/></mxCell><mxCell id="twwaAmcpACiWc4_Vs1gQ-10" value="Food package" style="shape=folder;fontStyle=1;tabWidth=110;tabHeight=30;tabPosition=left;html=1;boundedLbl=1;labelInHeader=1;container=1;collapsible=0;recursiveResize=0;whiteSpace=wrap;" parent="WIyWlLk6GJQsqaUBKTNV-1" vertex="1"><mxGeometry x="160" y="314" width="420" height="366" as="geometry"/></mxCell><mxCell id="twwaAmcpACiWc4_Vs1gQ-0" value="Food" style="swimlane;fontStyle=0;childLayout=stackLayout;horizontal=1;startSize=26;fillColor=none;horizontalStack=0;resizeParent=1;resizeParentMax=0;resizeLast=0;collapsible=1;marginBottom=0;whiteSpace=wrap;html=1;" parent="twwaAmcpACiWc4_Vs1gQ-10" vertex="1"><mxGeometry x="10" y="111" width="180" height="104" as="geometry"/></mxCell><mxCell id="twwaAmcpACiWc4_Vs1gQ-1" value="- name: String" style="text;strokeColor=none;fillColor=none;align=left;verticalAlign=top;spacingLeft=4;spacingRight=4;overflow=hidden;rotatable=0;points=[[0,0.5],[1,0.5]];portConstraint=eastwest;whiteSpace=wrap;html=1;" parent="twwaAmcpACiWc4_Vs1gQ-0" vertex="1"><mxGeometry y="26" width="180" height="26" as="geometry"/></mxCell><mxCell id="twwaAmcpACiWc4_Vs1gQ-39" value="- batchDate: Date" style="text;strokeColor=none;fillColor=none;align=left;verticalAlign=top;spacingLeft=4;spacingRight=4;overflow=hidden;rotatable=0;points=[[0,0.5],[1,0.5]];portConstraint=eastwest;whiteSpace=wrap;html=1;" parent="twwaAmcpACiWc4_Vs1gQ-0" vertex="1"><mxGeometry y="52" width="180" height="26" as="geometry"/></mxCell><mxCell id="twwaAmcpACiWc4_Vs1gQ-3" value="- sellByDate: Date [0..1]" style="text;strokeColor=none;fillColor=none;align=left;verticalAlign=top;spacingLeft=4;spacingRight=4;overflow=hidden;rotatable=0;points=[[0,0.5],[1,0.5]];portConstraint=eastwest;whiteSpace=wrap;html=1;" parent="twwaAmcpACiWc4_Vs1gQ-0" vertex="1"><mxGeometry y="78" width="180" height="26" as="geometry"/></mxCell><mxCell id="twwaAmcpACiWc4_Vs1gQ-49" value="1..n" style="resizable=0;align=left;verticalAlign=bottom;labelBackgroundColor=none;fontSize=12;" parent="twwaAmcpACiWc4_Vs1gQ-10" connectable="0" vertex="1"><mxGeometry x="90" y="95.99888888888893" as="geometry"/></mxCell><mxCell id="twwaAmcpACiWc4_Vs1gQ-21" value="Menu package" style="shape=folder;fontStyle=1;tabWidth=110;tabHeight=30;tabPosition=left;html=1;boundedLbl=1;labelInHeader=1;container=1;collapsible=0;recursiveResize=0;whiteSpace=wrap;" parent="WIyWlLk6GJQsqaUBKTNV-1" vertex="1"><mxGeometry x="590" y="310" width="430" height="370" as="geometry"/></mxCell><mxCell id="twwaAmcpACiWc4_Vs1gQ-22" value="Menu" style="swimlane;fontStyle=0;childLayout=stackLayout;horizontal=1;startSize=26;fillColor=none;horizontalStack=0;resizeParent=1;resizeParentMax=0;resizeLast=0;collapsible=1;marginBottom=0;whiteSpace=wrap;html=1;" parent="twwaAmcpACiWc4_Vs1gQ-21" vertex="1"><mxGeometry x="30" y="111" width="180" height="130" as="geometry"/></mxCell><mxCell id="twwaAmcpACiWc4_Vs1gQ-23" value="- name: String" style="text;strokeColor=none;fillColor=none;align=left;verticalAlign=top;spacingLeft=4;spacingRight=4;overflow=hidden;rotatable=0;points=[[0,0.5],[1,0.5]];portConstraint=eastwest;whiteSpace=wrap;html=1;" parent="twwaAmcpACiWc4_Vs1gQ-22" vertex="1"><mxGeometry y="26" width="180" height="26" as="geometry"/></mxCell><mxCell id="twwaAmcpACiWc4_Vs1gQ-24" value="- frequency: Frequency" style="text;strokeColor=none;fillColor=none;align=left;verticalAlign=top;spacingLeft=4;spacingRight=4;overflow=hidden;rotatable=0;points=[[0,0.5],[1,0.5]];portConstraint=eastwest;whiteSpace=wrap;html=1;" parent="twwaAmcpACiWc4_Vs1gQ-22" vertex="1"><mxGeometry y="52" width="180" height="26" as="geometry"/></mxCell><mxCell id="twwaAmcpACiWc4_Vs1gQ-25" value="- type: Type" style="text;strokeColor=none;fillColor=none;align=left;verticalAlign=top;spacingLeft=4;spacingRight=4;overflow=hidden;rotatable=0;points=[[0,0.5],[1,0.5]];portConstraint=eastwest;whiteSpace=wrap;html=1;" parent="twwaAmcpACiWc4_Vs1gQ-22" vertex="1"><mxGeometry y="78" width="180" height="26" as="geometry"/></mxCell><mxCell id="twwaAmcpACiWc4_Vs1gQ-26" value="- recipes: Recipe [1..*]" style="text;strokeColor=none;fillColor=none;align=left;verticalAlign=top;spacingLeft=4;spacingRight=4;overflow=hidden;rotatable=0;points=[[0,0.5],[1,0.5]];portConstraint=eastwest;whiteSpace=wrap;html=1;" parent="twwaAmcpACiWc4_Vs1gQ-22" vertex="1"><mxGeometry y="104" width="180" height="26" as="geometry"/></mxCell><mxCell id="twwaAmcpACiWc4_Vs1gQ-27" value="&lt;&lt;enumeration&gt;&gt;&#10;Type" style="swimlane;fontStyle=2;childLayout=stackLayout;horizontal=1;startSize=50;fillColor=none;horizontalStack=0;resizeParent=1;resizeParentMax=0;resizeLast=0;collapsible=1;marginBottom=0;" parent="twwaAmcpACiWc4_Vs1gQ-21" vertex="1"><mxGeometry x="280" y="189" width="140" height="162" as="geometry"><mxRectangle x="800" y="100" width="140" height="40" as="alternateBounds"/></mxGeometry></mxCell><mxCell id="twwaAmcpACiWc4_Vs1gQ-28" value="balanced" style="text;strokeColor=none;fillColor=none;align=left;verticalAlign=top;spacingLeft=4;spacingRight=4;overflow=hidden;rotatable=0;points=[[0,0.5],[1,0.5]];portConstraint=eastwest;" parent="twwaAmcpACiWc4_Vs1gQ-27" vertex="1"><mxGeometry y="50" width="140" height="26" as="geometry"/></mxCell><mxCell id="twwaAmcpACiWc4_Vs1gQ-29" value="vegetarian" style="text;strokeColor=none;fillColor=none;align=left;verticalAlign=top;spacingLeft=4;spacingRight=4;overflow=hidden;rotatable=0;points=[[0,0.5],[1,0.5]];portConstraint=eastwest;" parent="twwaAmcpACiWc4_Vs1gQ-27" vertex="1"><mxGeometry y="76" width="140" height="26" as="geometry"/></mxCell><mxCell id="twwaAmcpACiWc4_Vs1gQ-30" value="vegan" style="text;strokeColor=none;fillColor=none;align=left;verticalAlign=top;spacingLeft=4;spacingRight=4;overflow=hidden;rotatable=0;points=[[0,0.5],[1,0.5]];portConstraint=eastwest;" parent="twwaAmcpACiWc4_Vs1gQ-27" vertex="1"><mxGeometry y="102" width="140" height="30" as="geometry"/></mxCell><mxCell id="twwaAmcpACiWc4_Vs1gQ-32" value="mediterranean" style="text;strokeColor=none;fillColor=none;align=left;verticalAlign=top;spacingLeft=4;spacingRight=4;overflow=hidden;rotatable=0;points=[[0,0.5],[1,0.5]];portConstraint=eastwest;" parent="twwaAmcpACiWc4_Vs1gQ-27" vertex="1"><mxGeometry y="132" width="140" height="30" as="geometry"/></mxCell><mxCell id="twwaAmcpACiWc4_Vs1gQ-31" style="edgeStyle=orthogonalEdgeStyle;rounded=0;orthogonalLoop=1;jettySize=auto;html=1;" parent="twwaAmcpACiWc4_Vs1gQ-21" source="twwaAmcpACiWc4_Vs1gQ-24" target="twwaAmcpACiWc4_Vs1gQ-27" edge="1"><mxGeometry relative="1" as="geometry"/></mxCell><mxCell id="twwaAmcpACiWc4_Vs1gQ-33" value="&lt;&lt;enumeration&gt;&gt;&#10;Frequency" style="swimlane;fontStyle=2;childLayout=stackLayout;horizontal=1;startSize=50;fillColor=none;horizontalStack=0;resizeParent=1;resizeParentMax=0;resizeLast=0;collapsible=1;marginBottom=0;" parent="twwaAmcpACiWc4_Vs1gQ-21" vertex="1"><mxGeometry x="280" y="50" width="140" height="102" as="geometry"><mxRectangle x="800" y="100" width="140" height="40" as="alternateBounds"/></mxGeometry></mxCell><mxCell id="twwaAmcpACiWc4_Vs1gQ-34" value="weekly" style="text;strokeColor=none;fillColor=none;align=left;verticalAlign=top;spacingLeft=4;spacingRight=4;overflow=hidden;rotatable=0;points=[[0,0.5],[1,0.5]];portConstraint=eastwest;" parent="twwaAmcpACiWc4_Vs1gQ-33" vertex="1"><mxGeometry y="50" width="140" height="26" as="geometry"/></mxCell><mxCell id="twwaAmcpACiWc4_Vs1gQ-35" value="monthly" style="text;strokeColor=none;fillColor=none;align=left;verticalAlign=top;spacingLeft=4;spacingRight=4;overflow=hidden;rotatable=0;points=[[0,0.5],[1,0.5]];portConstraint=eastwest;" parent="twwaAmcpACiWc4_Vs1gQ-33" vertex="1"><mxGeometry y="76" width="140" height="26" as="geometry"/></mxCell><mxCell id="twwaAmcpACiWc4_Vs1gQ-38" style="edgeStyle=orthogonalEdgeStyle;rounded=0;orthogonalLoop=1;jettySize=auto;html=1;entryX=0;entryY=0.5;entryDx=0;entryDy=0;" parent="twwaAmcpACiWc4_Vs1gQ-21" source="twwaAmcpACiWc4_Vs1gQ-23" target="twwaAmcpACiWc4_Vs1gQ-33" edge="1"><mxGeometry relative="1" as="geometry"/></mxCell><mxCell id="9nvnAEAGr7HeEQP3xFSp-0" value="Shared package" style="shape=folder;fontStyle=1;tabWidth=110;tabHeight=30;tabPosition=left;html=1;boundedLbl=1;labelInHeader=1;container=1;collapsible=0;recursiveResize=0;whiteSpace=wrap;" parent="WIyWlLk6GJQsqaUBKTNV-1" vertex="1"><mxGeometry x="160" y="40" width="860" height="250" as="geometry"/></mxCell><mxCell id="twwaAmcpACiWc4_Vs1gQ-40" value="Quantity" style="swimlane;fontStyle=0;align=center;verticalAlign=top;childLayout=stackLayout;horizontal=1;startSize=26;horizontalStack=0;resizeParent=1;resizeLast=0;collapsible=1;marginBottom=0;rounded=0;shadow=0;strokeWidth=1;" parent="9nvnAEAGr7HeEQP3xFSp-0" vertex="1"><mxGeometry x="225" y="69" width="180" height="78" as="geometry"><mxRectangle x="550" y="140" width="160" height="26" as="alternateBounds"/></mxGeometry></mxCell><mxCell id="twwaAmcpACiWc4_Vs1gQ-42" value="- amount: Double" style="text;align=left;verticalAlign=top;spacingLeft=4;spacingRight=4;overflow=hidden;rotatable=0;points=[[0,0.5],[1,0.5]];portConstraint=eastwest;rounded=0;shadow=0;html=0;" parent="twwaAmcpACiWc4_Vs1gQ-40" vertex="1"><mxGeometry y="26" width="180" height="26" as="geometry"/></mxCell><mxCell id="twwaAmcpACiWc4_Vs1gQ-43" value="- type: Type" style="text;align=left;verticalAlign=top;spacingLeft=4;spacingRight=4;overflow=hidden;rotatable=0;points=[[0,0.5],[1,0.5]];portConstraint=eastwest;rounded=0;shadow=0;html=0;" parent="twwaAmcpACiWc4_Vs1gQ-40" vertex="1"><mxGeometry y="52" width="180" height="26" as="geometry"/></mxCell><mxCell id="XJNn22fLhvP08hlpOp0B-0" value="&lt;&lt;enumeration&gt;&gt;&#10;Type" style="swimlane;fontStyle=2;childLayout=stackLayout;horizontal=1;startSize=50;fillColor=none;horizontalStack=0;resizeParent=1;resizeParentMax=0;resizeLast=0;collapsible=1;marginBottom=0;" parent="9nvnAEAGr7HeEQP3xFSp-0" vertex="1"><mxGeometry x="527" y="40" width="140" height="192" as="geometry"><mxRectangle x="800" y="100" width="140" height="40" as="alternateBounds"/></mxGeometry></mxCell><mxCell id="XJNn22fLhvP08hlpOp0B-1" value="grams" style="text;strokeColor=none;fillColor=none;align=left;verticalAlign=top;spacingLeft=4;spacingRight=4;overflow=hidden;rotatable=0;points=[[0,0.5],[1,0.5]];portConstraint=eastwest;" parent="XJNn22fLhvP08hlpOp0B-0" vertex="1"><mxGeometry y="50" width="140" height="26" as="geometry"/></mxCell><mxCell id="XJNn22fLhvP08hlpOp0B-2" value="milliliters" style="text;strokeColor=none;fillColor=none;align=left;verticalAlign=top;spacingLeft=4;spacingRight=4;overflow=hidden;rotatable=0;points=[[0,0.5],[1,0.5]];portConstraint=eastwest;" parent="XJNn22fLhvP08hlpOp0B-0" vertex="1"><mxGeometry y="76" width="140" height="26" as="geometry"/></mxCell><mxCell id="XJNn22fLhvP08hlpOp0B-3" value="tablespoon" style="text;strokeColor=none;fillColor=none;align=left;verticalAlign=top;spacingLeft=4;spacingRight=4;overflow=hidden;rotatable=0;points=[[0,0.5],[1,0.5]];portConstraint=eastwest;" parent="XJNn22fLhvP08hlpOp0B-0" vertex="1"><mxGeometry y="102" width="140" height="30" as="geometry"/></mxCell><mxCell id="XJNn22fLhvP08hlpOp0B-4" value="pinch" style="text;strokeColor=none;fillColor=none;align=left;verticalAlign=top;spacingLeft=4;spacingRight=4;overflow=hidden;rotatable=0;points=[[0,0.5],[1,0.5]];portConstraint=eastwest;" parent="XJNn22fLhvP08hlpOp0B-0" vertex="1"><mxGeometry y="132" width="140" height="30" as="geometry"/></mxCell><mxCell id="XJNn22fLhvP08hlpOp0B-5" value="unit" style="text;strokeColor=none;fillColor=none;align=left;verticalAlign=top;spacingLeft=4;spacingRight=4;overflow=hidden;rotatable=0;points=[[0,0.5],[1,0.5]];portConstraint=eastwest;" parent="XJNn22fLhvP08hlpOp0B-0" vertex="1"><mxGeometry y="162" width="140" height="30" as="geometry"/></mxCell><mxCell id="XJNn22fLhvP08hlpOp0B-6" style="edgeStyle=orthogonalEdgeStyle;rounded=0;orthogonalLoop=1;jettySize=auto;html=1;startArrow=none;startFill=0;startSize=10;sourcePerimeterSpacing=0;endArrow=open;endFill=0;exitX=1;exitY=0.5;exitDx=0;exitDy=0;" parent="9nvnAEAGr7HeEQP3xFSp-0" source="twwaAmcpACiWc4_Vs1gQ-42" target="XJNn22fLhvP08hlpOp0B-0" edge="1"><mxGeometry relative="1" as="geometry"><Array as="points"><mxPoint x="405" y="104"/></Array></mxGeometry></mxCell><mxCell id="9nvnAEAGr7HeEQP3xFSp-4" value="1" style="resizable=0;align=left;verticalAlign=bottom;labelBackgroundColor=none;fontSize=12;" parent="9nvnAEAGr7HeEQP3xFSp-0" connectable="0" vertex="1"><mxGeometry x="315" y="59.99888888888893" as="geometry"/></mxCell><mxCell id="9nvnAEAGr7HeEQP3xFSp-5" value="1" style="resizable=0;align=left;verticalAlign=bottom;labelBackgroundColor=none;fontSize=12;" parent="9nvnAEAGr7HeEQP3xFSp-0" connectable="0" vertex="1"><mxGeometry x="290" y="169.99888888888893" as="geometry"/></mxCell><mxCell id="twwaAmcpACiWc4_Vs1gQ-44" style="edgeStyle=orthogonalEdgeStyle;rounded=0;orthogonalLoop=1;jettySize=auto;html=1;strokeColor=default;startArrow=diamondThin;startFill=1;startSize=12;endArrow=open;endFill=0;" parent="WIyWlLk6GJQsqaUBKTNV-1" source="zkfFHV4jXpPFQw0GAbJ--17" target="twwaAmcpACiWc4_Vs1gQ-40" edge="1"><mxGeometry relative="1" as="geometry"><Array as="points"><mxPoint x="655" y="60"/><mxPoint x="475" y="60"/></Array></mxGeometry></mxCell><mxCell id="twwaAmcpACiWc4_Vs1gQ-48" style="edgeStyle=orthogonalEdgeStyle;rounded=0;orthogonalLoop=1;jettySize=auto;html=1;strokeColor=default;startArrow=diamondThin;startFill=1;startSize=12;endArrow=open;endFill=0;" parent="WIyWlLk6GJQsqaUBKTNV-1" source="twwaAmcpACiWc4_Vs1gQ-0" target="twwaAmcpACiWc4_Vs1gQ-40" edge="1"><mxGeometry relative="1" as="geometry"><mxPoint x="665" y="100" as="sourcePoint"/><mxPoint x="390" y="400" as="targetPoint"/><Array as="points"><mxPoint x="280" y="400"/><mxPoint x="475" y="400"/></Array></mxGeometry></mxCell></root></mxGraphModel></diagram></mxfile>